<svg xmlns="http://www.w3.org/2000/svg" viewBox="0 0 320 64" role="img" aria-label="bellwest">
  <defs>
    <linearGradient id="waveGrad" x1="0%" y1="0%" x2="100%" y2="0%">
      <stop offset="0%" stop-color="#1a6b7a"/>
      <stop offset="100%" stop-color="#2d9aad"/>
    </linearGradient>
    <linearGradient id="roadGrad" x1="0%" y1="0%" x2="100%" y2="0%">
      <stop offset="0%" stop-color="#c4a35a"/>
      <stop offset="100%" stop-color="#e8d5a3"/>
    </linearGradient>
  </defs>
  <!-- Wave -->
  <path fill="url(#waveGrad)" d="M8 38 C20 28, 32 48, 44 38 S68 28, 80 38 S104 48, 116 38 S140 28, 152 38" stroke="none"/>
  <path fill="none" stroke="url(#waveGrad)" stroke-width="2.5" stroke-linecap="round" d="M8 38 C20 28, 32 48, 44 38 S68 28, 80 38 S104 48, 116 38 S140 28, 152 38"/>
  <!-- Road curve -->
  <path fill="none" stroke="url(#roadGrad)" stroke-width="3" stroke-linecap="round" d="M156 46 Q200 20, 248 42"/>
  <path fill="url(#roadGrad)" d="M244 40 L256 38 L258 44 L246 46 Z" opacity="0.9"/>
  <!-- Wordmark -->
  <text x="168" y="58" font-family="Georgia, 'Times New Roman', serif" font-size="22" font-weight="600" fill="#1a3a4a" letter-spacing="1">bellwest</text>
</svg>